<svg width="32" height="32" viewBox="0 0 48 48" fill="none" xmlns="http://www.w3.org/2000/svg">
  <defs>
    <linearGradient id="faviconGradient" x1="0%" y1="0%" x2="100%" y2="100%">
      <stop offset="0%" stop-color="#DA7523" />
      <stop offset="100%" stop-color="#D1AE3C" />
    </linearGradient>
  </defs>
  <!-- Feather shape -->
  <path
    d="M24 4C24 4 18 8 16 14C14 20 14 28 14 32C14 36 16 42 24 44C32 42 34 36 34 32C34 28 34 20 32 14C30 8 24 4 24 4Z"
    fill="url(#faviconGradient)"
  />
  <!-- Feather details -->
  <path
    d="M24 8L20 16M24 8L28 16M24 12L22 20M24 12L26 20M24 16L23 24M24 16L25 24"
    stroke="white"
    stroke-width="1.5"
    stroke-linecap="round"
    opacity="0.6"
  />
  <!-- Building outline at bottom -->
  <rect x="18" y="32" width="12" height="10" fill="white" opacity="0.3" rx="1" />
  <rect x="20" y="34" width="2" height="3" fill="#DA7523" />
  <rect x="23" y="34" width="2" height="3" fill="#DA7523" />
  <rect x="26" y="34" width="2" height="3" fill="#DA7523" />
</svg>
